<?xml version="1.0" encoding="UTF-8" standalone="no"?>

<svg width="100%" height="100%" viewBox="0 0 3508 4961" version="1.1" xmlns="http://www.w3.org/2000/svg" xmlns:xlink="http://www.w3.org/1999/xlink" xml:space="preserve" xmlns:serif="http://www.serif.com/" style="fill-rule:evenodd;clip-rule:evenodd;stroke-linejoin:round;stroke-miterlimit:2;">
    <path d="M184.69,1559.916L184.69,1395.372C184.69,1393.855 185.225,1392.56 186.296,1391.489C187.368,1390.418 188.662,1389.883 190.179,1389.883L327.277,1389.883C328.795,1389.883 330.089,1390.418 331.16,1391.489C332.231,1392.56 332.767,1393.855 332.767,1395.372C332.767,1396.889 332.231,1398.183 331.16,1399.255C330.089,1400.326 328.795,1400.861 327.277,1400.861L195.668,1400.861L195.668,1472.222L299.831,1472.222C301.348,1472.222 302.642,1472.757 303.713,1473.828C304.785,1474.9 305.32,1476.194 305.32,1477.711C305.32,1479.228 304.785,1480.523 303.713,1481.594C302.642,1482.665 301.348,1483.2 299.831,1483.2L195.668,1483.2L195.668,1559.916C195.668,1561.434 195.133,1562.728 194.062,1563.799C192.991,1564.87 191.696,1565.406 190.179,1565.406C188.662,1565.406 187.368,1564.87 186.296,1563.799C185.225,1562.728 184.69,1561.434 184.69,1559.916ZM607.498,1559.916C607.498,1561.434 606.963,1562.728 605.892,1563.799C604.821,1564.87 603.526,1565.406 602.009,1565.406C600.045,1565.406 598.216,1564.022 596.52,1561.255L575.232,1524.303L438.937,1524.303L417.516,1561.255C415.82,1564.022 414.079,1565.406 412.294,1565.406C410.777,1565.406 409.483,1564.87 408.411,1563.799C407.34,1562.728 406.805,1561.434 406.805,1559.916C406.805,1558.935 407.073,1558.042 407.608,1557.239L502.533,1392.426C503.514,1390.731 505.076,1389.883 507.219,1389.883C509.45,1389.883 511.012,1390.731 511.904,1392.426L606.695,1557.239C607.231,1558.042 607.498,1558.935 607.498,1559.916ZM507.219,1406.083L445.23,1513.324L568.806,1513.324L507.219,1406.083ZM722.639,1559.787L722.639,1395.372C722.639,1393.855 723.175,1392.56 724.246,1391.489C725.317,1390.418 726.611,1389.883 728.129,1389.883L837.78,1389.883C850.722,1389.883 861.723,1394.435 870.783,1403.539C879.842,1412.643 884.372,1423.666 884.372,1436.608C884.372,1445.356 882.118,1453.433 877.611,1460.842C873.104,1468.25 867.146,1473.873 859.737,1477.711C867.146,1481.735 873.104,1487.411 877.611,1494.742C882.118,1502.072 884.372,1510.117 884.372,1518.877C884.372,1531.749 879.887,1542.7 870.917,1551.729C861.947,1560.757 851.08,1565.272 838.316,1565.272L728.129,1565.272C726.611,1565.272 725.317,1564.737 724.246,1563.667C723.175,1562.596 722.639,1561.303 722.639,1559.787ZM873.394,1436.608C873.394,1426.79 869.913,1418.378 862.951,1411.371C855.989,1404.365 847.599,1400.861 837.78,1400.861L733.618,1400.861L733.618,1472.222L839.119,1472.222C848.67,1471.776 856.77,1468.116 863.419,1461.243C870.069,1454.371 873.394,1446.159 873.394,1436.608ZM838.316,1483.334L733.618,1483.334L733.618,1554.293L838.316,1554.293C848.045,1554.293 856.323,1550.851 863.151,1543.965C869.98,1537.079 873.394,1528.717 873.394,1518.881C873.394,1509.134 869.98,1500.773 863.151,1493.798C856.323,1486.822 848.045,1483.334 838.316,1483.334ZM1005.002,1559.916L1005.002,1395.372C1005.002,1393.855 1005.538,1392.56 1006.609,1391.489C1007.68,1390.418 1008.974,1389.883 1010.492,1389.883C1012.009,1389.883 1013.303,1390.418 1014.374,1391.489C1015.446,1392.56 1015.981,1393.855 1015.981,1395.372L1015.981,1559.916C1015.981,1561.434 1015.446,1562.728 1014.374,1563.799C1013.303,1564.87 1012.009,1565.406 1010.492,1565.406C1008.974,1565.406 1007.68,1564.87 1006.609,1563.799C1005.538,1562.728 1005.002,1561.434 1005.002,1559.916ZM1136.745,1477.711C1136.745,1488.154 1138.776,1498.106 1142.837,1507.567C1146.898,1517.029 1152.343,1525.173 1159.171,1532.001C1165.999,1538.83 1174.144,1544.274 1183.605,1548.335C1193.066,1552.397 1203.018,1554.427 1213.461,1554.427C1223.904,1554.427 1233.856,1552.397 1243.318,1548.335C1252.779,1544.274 1260.923,1538.83 1267.752,1532.001C1274.58,1525.173 1280.024,1517.029 1284.086,1507.567C1288.147,1498.106 1290.177,1488.154 1290.177,1477.711C1290.177,1463.787 1286.763,1450.934 1279.935,1439.152C1273.107,1427.37 1263.802,1418.043 1252.02,1411.17C1240.238,1404.298 1227.385,1400.861 1213.461,1400.861C1199.537,1400.861 1186.684,1404.298 1174.902,1411.17C1163.121,1418.043 1153.816,1427.37 1146.987,1439.152C1140.159,1450.934 1136.745,1463.787 1136.745,1477.711ZM1125.767,1477.711C1125.767,1461.823 1129.672,1447.141 1137.482,1433.663C1145.292,1420.185 1155.935,1409.519 1169.413,1401.665C1182.891,1393.81 1197.574,1389.883 1213.461,1389.883C1229.349,1389.883 1244.032,1393.81 1257.509,1401.665C1270.987,1409.519 1281.631,1420.185 1289.441,1433.663C1297.251,1447.141 1301.156,1461.823 1301.156,1477.711C1301.156,1489.582 1298.835,1500.94 1294.194,1511.785C1289.552,1522.629 1283.327,1531.957 1275.517,1539.767C1267.707,1547.577 1258.38,1553.802 1247.535,1558.444C1236.69,1563.085 1225.332,1565.406 1213.461,1565.406C1201.59,1565.406 1190.232,1563.085 1179.388,1558.444C1168.543,1553.802 1159.216,1547.577 1151.406,1539.767C1143.596,1531.957 1137.37,1522.629 1132.729,1511.785C1128.087,1500.94 1125.767,1489.582 1125.767,1477.711ZM535.92,1809.141L541.164,1809.141C567.157,1809.141 580.154,1801.641 580.154,1786.643C580.154,1771.644 567.157,1764.145 541.164,1764.145C532.029,1764.145 524.093,1763.13 517.355,1761.1C510.617,1759.07 505.246,1755.814 501.243,1751.331C497.239,1746.849 495.238,1741.309 495.238,1734.712C495.238,1725.634 499.495,1718.444 508.009,1713.144C516.523,1707.844 527.575,1705.194 541.164,1705.194C547.366,1705.194 553.963,1705.842 560.955,1707.139C567.947,1708.436 573.924,1710.156 578.886,1712.298C579.901,1712.637 580.676,1713.257 581.212,1714.159C581.747,1715.061 581.846,1716.02 581.508,1717.035C581.226,1717.824 580.648,1718.43 579.774,1718.853C578.9,1719.276 577.927,1719.29 576.856,1718.895C565.24,1714.385 553.343,1712.129 541.164,1712.129C535.525,1712.129 530.45,1712.51 525.94,1713.271C521.429,1714.032 517.341,1715.259 513.676,1716.95C510.011,1718.642 507.177,1720.982 505.176,1723.97C503.174,1726.959 502.173,1730.539 502.173,1734.712C502.173,1749.71 515.17,1757.209 541.164,1757.209C550.298,1757.209 558.234,1758.224 564.973,1760.254C571.711,1762.284 577.081,1765.54 581.085,1770.023C585.088,1774.506 587.09,1780.046 587.09,1786.643C587.09,1795.721 582.833,1802.896 574.318,1808.168C565.804,1813.44 554.753,1816.076 541.164,1816.076L535.92,1816.076C529.717,1816.076 523.092,1815.428 516.044,1814.131C508.996,1812.834 502.991,1811.114 498.029,1808.971C497.07,1808.577 496.337,1807.971 495.83,1807.153C495.322,1806.335 495.238,1805.391 495.576,1804.32C495.914,1803.305 496.492,1802.614 497.31,1802.247C498.127,1801.881 498.987,1801.867 499.889,1802.205C511.787,1806.829 523.797,1809.141 535.92,1809.141ZM706.599,1812.608L706.599,1712.129L658.051,1712.129C657.093,1712.129 656.275,1711.791 655.598,1711.114C654.922,1710.438 654.583,1709.62 654.583,1708.661C654.583,1707.703 654.922,1706.885 655.598,1706.209C656.275,1705.532 657.093,1705.194 658.051,1705.194L761.998,1705.194C762.956,1705.194 763.774,1705.532 764.451,1706.209C765.127,1706.885 765.466,1707.703 765.466,1708.661C765.466,1709.62 765.127,1710.438 764.451,1711.114C763.774,1711.791 762.956,1712.129 761.998,1712.129L713.45,1712.129L713.45,1812.608C713.45,1813.567 713.112,1814.384 712.435,1815.061C711.758,1815.738 710.941,1816.076 709.982,1816.076C709.024,1816.076 708.22,1815.738 707.572,1815.061C706.923,1814.384 706.599,1813.567 706.599,1812.608ZM931.662,1708.661C931.662,1707.703 932,1706.885 932.677,1706.209C933.354,1705.532 934.171,1705.194 935.13,1705.194C936.088,1705.194 936.906,1705.532 937.583,1706.209C938.259,1706.885 938.598,1707.703 938.598,1708.661L938.598,1764.991C938.598,1771.926 937.244,1778.551 934.538,1784.867C931.831,1791.182 928.209,1796.609 923.67,1801.148C919.13,1805.687 913.703,1809.31 907.388,1812.016C901.073,1814.723 894.448,1816.076 887.512,1816.076C880.577,1816.076 873.952,1814.723 867.636,1812.016C861.321,1809.31 855.894,1805.687 851.355,1801.148C846.816,1796.609 843.193,1791.182 840.487,1784.867C837.78,1778.551 836.427,1771.926 836.427,1764.991L836.427,1708.661C836.427,1707.703 836.765,1706.885 837.442,1706.209C838.118,1705.532 838.936,1705.194 839.895,1705.194C840.853,1705.194 841.657,1705.532 842.305,1706.209C842.954,1706.885 843.278,1707.703 843.278,1708.661L843.278,1764.991C843.278,1772.997 845.251,1780.398 849.198,1787.193C853.145,1793.987 858.516,1799.344 865.31,1803.262C872.105,1807.181 879.506,1809.141 887.512,1809.141C893.489,1809.141 899.212,1807.985 904.682,1805.673C910.151,1803.361 914.859,1800.232 918.806,1796.285C922.753,1792.338 925.883,1787.63 928.194,1782.16C930.506,1776.691 931.662,1770.968 931.662,1764.991L931.662,1708.661ZM1016.494,1812.608L1016.494,1708.661C1016.494,1707.703 1016.833,1706.885 1017.509,1706.209C1018.186,1705.532 1019.003,1705.194 1019.962,1705.194L1063.266,1705.194C1073.303,1705.194 1082.578,1707.675 1091.092,1712.637C1099.607,1717.599 1106.331,1724.337 1111.264,1732.851C1116.198,1741.365 1118.665,1750.641 1118.665,1760.677C1118.665,1768.176 1117.199,1775.352 1114.267,1782.202C1111.335,1789.053 1107.402,1794.946 1102.468,1799.879C1097.535,1804.813 1091.642,1808.746 1084.791,1811.678C1077.941,1814.61 1070.765,1816.076 1063.266,1816.076L1019.962,1816.076C1019.003,1816.076 1018.186,1815.738 1017.509,1815.061C1016.833,1814.384 1016.494,1813.567 1016.494,1812.608ZM1105.302,1785.057C1109.587,1777.636 1111.73,1769.524 1111.73,1760.719C1111.73,1751.915 1109.573,1743.789 1105.259,1736.34C1100.946,1728.891 1095.068,1722.994 1087.625,1718.648C1080.182,1714.302 1072.062,1712.129 1063.266,1712.129L1023.43,1712.129L1023.43,1809.141L1063.604,1809.141C1072.344,1809.141 1080.407,1806.982 1087.794,1802.665C1095.18,1798.347 1101.016,1792.478 1105.302,1785.057ZM1186.159,1812.608L1186.159,1708.661C1186.159,1707.703 1186.497,1706.885 1187.174,1706.209C1187.85,1705.532 1188.668,1705.194 1189.626,1705.194C1190.585,1705.194 1191.402,1705.532 1192.079,1706.209C1192.756,1706.885 1193.094,1707.703 1193.094,1708.661L1193.094,1812.608C1193.094,1813.567 1192.756,1814.384 1192.079,1815.061C1191.402,1815.738 1190.585,1816.076 1189.626,1816.076C1188.668,1816.076 1187.85,1815.738 1187.174,1815.061C1186.497,1814.384 1186.159,1813.567 1186.159,1812.608ZM1269.384,1760.677C1269.384,1767.274 1270.666,1773.561 1273.232,1779.538C1275.798,1785.515 1279.237,1790.66 1283.551,1794.974C1287.864,1799.287 1293.009,1802.727 1298.986,1805.292C1304.963,1807.858 1311.25,1809.141 1317.847,1809.141C1324.444,1809.141 1330.731,1807.858 1336.708,1805.292C1342.685,1802.727 1347.83,1799.287 1352.144,1794.974C1356.457,1790.66 1359.897,1785.515 1362.462,1779.538C1365.028,1773.561 1366.311,1767.274 1366.311,1760.677C1366.311,1751.881 1364.154,1743.762 1359.84,1736.319C1355.527,1728.876 1349.649,1722.983 1342.206,1718.642C1334.763,1714.3 1326.643,1712.129 1317.847,1712.129C1309.051,1712.129 1300.931,1714.3 1293.489,1718.642C1286.046,1722.983 1280.167,1728.876 1275.854,1736.319C1271.54,1743.762 1269.384,1751.881 1269.384,1760.677ZM1262.448,1760.677C1262.448,1750.641 1264.915,1741.365 1269.849,1732.851C1274.783,1724.337 1281.507,1717.599 1290.021,1712.637C1298.535,1707.675 1307.81,1705.194 1317.847,1705.194C1327.884,1705.194 1337.159,1707.675 1345.673,1712.637C1354.188,1717.599 1360.912,1724.337 1365.845,1732.851C1370.779,1741.365 1373.246,1750.641 1373.246,1760.677C1373.246,1768.176 1371.78,1775.352 1368.848,1782.202C1365.916,1789.053 1361.983,1794.946 1357.049,1799.879C1352.115,1804.813 1346.223,1808.746 1339.372,1811.678C1332.521,1814.61 1325.346,1816.076 1317.847,1816.076C1310.348,1816.076 1303.173,1814.61 1296.322,1811.678C1289.471,1808.746 1283.579,1804.813 1278.645,1799.879C1273.711,1794.946 1269.778,1789.053 1266.846,1782.202C1263.914,1775.352 1262.448,1768.176 1262.448,1760.677ZM1534.283,1812.608L1534.283,1708.661C1534.283,1707.703 1534.622,1706.885 1535.298,1706.209C1535.975,1705.532 1536.792,1705.194 1537.751,1705.194L1581.055,1705.194C1591.092,1705.194 1600.367,1707.675 1608.881,1712.637C1617.396,1717.599 1624.12,1724.337 1629.053,1732.851C1633.987,1741.365 1636.454,1750.641 1636.454,1760.677C1636.454,1768.176 1634.988,1775.352 1632.056,1782.202C1629.124,1789.053 1625.191,1794.946 1620.257,1799.879C1615.323,1804.813 1609.431,1808.746 1602.58,1811.678C1595.729,1814.61 1588.554,1816.076 1581.055,1816.076L1537.751,1816.076C1536.792,1816.076 1535.975,1815.738 1535.298,1815.061C1534.622,1814.384 1534.283,1813.567 1534.283,1812.608ZM1623.091,1785.057C1627.376,1777.636 1629.519,1769.524 1629.519,1760.719C1629.519,1751.915 1627.362,1743.789 1623.048,1736.34C1618.735,1728.891 1612.857,1722.994 1605.414,1718.648C1597.971,1714.302 1589.851,1712.129 1581.055,1712.129L1541.219,1712.129L1541.219,1809.141L1581.393,1809.141C1590.133,1809.141 1598.196,1806.982 1605.583,1802.665C1612.969,1798.347 1618.805,1792.478 1623.091,1785.057ZM1710.883,1812.608L1710.883,1708.661C1710.883,1707.703 1711.221,1706.885 1711.898,1706.209C1712.574,1705.532 1713.392,1705.194 1714.351,1705.194L1800.959,1705.194C1801.917,1705.194 1802.735,1705.532 1803.412,1706.209C1804.088,1706.885 1804.427,1707.703 1804.427,1708.661C1804.427,1709.62 1804.088,1710.438 1803.412,1711.114C1802.735,1711.791 1801.917,1712.129 1800.959,1712.129L1717.818,1712.129L1717.818,1757.209L1783.62,1757.209C1784.579,1757.209 1785.396,1757.548 1786.073,1758.224C1786.75,1758.901 1787.088,1759.719 1787.088,1760.677C1787.088,1761.636 1786.75,1762.453 1786.073,1763.13C1785.396,1763.807 1784.579,1764.145 1783.62,1764.145L1717.818,1764.145L1717.818,1809.141L1800.959,1809.141C1801.917,1809.141 1802.735,1809.479 1803.412,1810.156C1804.088,1810.832 1804.427,1811.65 1804.427,1812.608C1804.427,1813.567 1804.088,1814.384 1803.412,1815.061C1802.735,1815.738 1801.917,1816.076 1800.959,1816.076L1714.351,1816.076C1713.392,1816.076 1712.574,1815.738 1711.898,1815.061C1711.221,1814.384 1710.883,1813.567 1710.883,1812.608ZM1880.632,1812.608L1880.632,1708.661C1880.632,1707.703 1880.97,1706.885 1881.647,1706.209C1882.323,1705.532 1883.141,1705.194 1884.099,1705.194C1885.002,1705.194 1885.932,1705.673 1886.891,1706.632L1984.579,1804.32L1984.579,1708.661C1984.579,1707.703 1984.917,1706.885 1985.594,1706.209C1986.27,1705.532 1987.088,1705.194 1988.046,1705.194C1989.005,1705.194 1989.822,1705.532 1990.499,1706.209C1991.176,1706.885 1991.514,1707.703 1991.514,1708.661L1991.514,1812.608C1991.514,1813.567 1991.176,1814.384 1990.499,1815.061C1989.822,1815.738 1989.005,1816.076 1988.046,1816.076C1987.088,1816.076 1986.157,1815.625 1985.255,1814.723L1887.567,1717.035L1887.567,1812.608C1887.567,1813.567 1887.229,1814.384 1886.552,1815.061C1885.876,1815.738 1885.058,1816.076 1884.099,1816.076C1883.141,1816.076 1882.323,1815.738 1881.647,1815.061C1880.97,1814.384 1880.632,1813.567 1880.632,1812.608ZM2116.183,1812.608L2116.183,1712.129L2067.635,1712.129C2066.676,1712.129 2065.858,1711.791 2065.182,1711.114C2064.505,1710.438 2064.167,1709.62 2064.167,1708.661C2064.167,1707.703 2064.505,1706.885 2065.182,1706.209C2065.858,1705.532 2066.676,1705.194 2067.635,1705.194L2171.581,1705.194C2172.54,1705.194 2173.358,1705.532 2174.034,1706.209C2174.711,1706.885 2175.049,1707.703 2175.049,1708.661C2175.049,1709.62 2174.711,1710.438 2174.034,1711.114C2173.358,1711.791 2172.54,1712.129 2171.581,1712.129L2123.033,1712.129L2123.033,1812.608C2123.033,1813.567 2122.695,1814.384 2122.018,1815.061C2121.342,1815.738 2120.524,1816.076 2119.566,1816.076C2118.607,1816.076 2117.804,1815.738 2117.155,1815.061C2116.507,1814.384 2116.183,1813.567 2116.183,1812.608ZM2247.702,1812.608L2247.702,1708.661C2247.702,1707.703 2248.04,1706.885 2248.717,1706.209C2249.394,1705.532 2250.211,1705.194 2251.17,1705.194C2252.128,1705.194 2252.946,1705.532 2253.622,1706.209C2254.299,1706.885 2254.637,1707.703 2254.637,1708.661L2254.637,1812.608C2254.637,1813.567 2254.299,1814.384 2253.622,1815.061C2252.946,1815.738 2252.128,1816.076 2251.17,1816.076C2250.211,1816.076 2249.394,1815.738 2248.717,1815.061C2248.04,1814.384 2247.702,1813.567 2247.702,1812.608ZM2371.525,1809.141L2376.769,1809.141C2402.762,1809.141 2415.759,1801.641 2415.759,1786.643C2415.759,1771.644 2402.762,1764.145 2376.769,1764.145C2367.634,1764.145 2359.698,1763.13 2352.96,1761.1C2346.222,1759.07 2340.851,1755.814 2336.848,1751.331C2332.844,1746.849 2330.843,1741.309 2330.843,1734.712C2330.843,1725.634 2335.1,1718.444 2343.614,1713.144C2352.128,1707.844 2363.18,1705.194 2376.769,1705.194C2382.971,1705.194 2389.568,1705.842 2396.56,1707.139C2403.552,1708.436 2409.529,1710.156 2414.491,1712.298C2415.506,1712.637 2416.281,1713.257 2416.816,1714.159C2417.352,1715.061 2417.451,1716.02 2417.113,1717.035C2416.831,1717.824 2416.253,1718.43 2415.379,1718.853C2414.505,1719.276 2413.532,1719.29 2412.461,1718.895C2400.845,1714.385 2388.948,1712.129 2376.769,1712.129C2371.13,1712.129 2366.055,1712.51 2361.545,1713.271C2357.034,1714.032 2352.946,1715.259 2349.281,1716.95C2345.616,1718.642 2342.782,1720.982 2340.781,1723.97C2338.779,1726.959 2337.778,1730.539 2337.778,1734.712C2337.778,1749.71 2350.775,1757.209 2376.769,1757.209C2385.903,1757.209 2393.839,1758.224 2400.577,1760.254C2407.316,1762.284 2412.686,1765.54 2416.69,1770.023C2420.693,1774.506 2422.695,1780.046 2422.695,1786.643C2422.695,1795.721 2418.438,1802.896 2409.923,1808.168C2401.409,1813.44 2390.358,1816.076 2376.769,1816.076L2371.525,1816.076C2365.322,1816.076 2358.697,1815.428 2351.649,1814.131C2344.601,1812.834 2338.596,1811.114 2333.634,1808.971C2332.675,1808.577 2331.942,1807.971 2331.435,1807.153C2330.927,1806.335 2330.843,1805.391 2331.181,1804.32C2331.519,1803.305 2332.097,1802.614 2332.915,1802.247C2333.732,1801.881 2334.592,1801.867 2335.494,1802.205C2347.392,1806.829 2359.402,1809.141 2371.525,1809.141ZM2542.204,1812.608L2542.204,1712.129L2493.656,1712.129C2492.697,1712.129 2491.88,1711.791 2491.203,1711.114C2490.527,1710.438 2490.188,1709.62 2490.188,1708.661C2490.188,1707.703 2490.527,1706.885 2491.203,1706.209C2491.88,1705.532 2492.697,1705.194 2493.656,1705.194L2597.603,1705.194C2598.561,1705.194 2599.379,1705.532 2600.056,1706.209C2600.732,1706.885 2601.071,1707.703 2601.071,1708.661C2601.071,1709.62 2600.732,1710.438 2600.056,1711.114C2599.379,1711.791 2598.561,1712.129 2597.603,1712.129L2549.055,1712.129L2549.055,1812.608C2549.055,1813.567 2548.716,1814.384 2548.04,1815.061C2547.363,1815.738 2546.546,1816.076 2545.587,1816.076C2544.629,1816.076 2543.825,1815.738 2543.177,1815.061C2542.528,1814.384 2542.204,1813.567 2542.204,1812.608ZM2673.723,1812.608L2673.723,1708.661C2673.723,1707.703 2674.062,1706.885 2674.738,1706.209C2675.415,1705.532 2676.233,1705.194 2677.191,1705.194C2678.15,1705.194 2678.967,1705.532 2679.644,1706.209C2680.32,1706.885 2680.659,1707.703 2680.659,1708.661L2680.659,1812.608C2680.659,1813.567 2680.32,1814.384 2679.644,1815.061C2678.967,1815.738 2678.15,1816.076 2677.191,1816.076C2676.233,1816.076 2675.415,1815.738 2674.738,1815.061C2674.062,1814.384 2673.723,1813.567 2673.723,1812.608ZM2750.013,1760.677C2750.013,1750.641 2752.48,1741.365 2757.414,1732.851C2762.347,1724.337 2769.071,1717.599 2777.586,1712.637C2786.1,1707.675 2795.375,1705.194 2805.412,1705.194C2812.798,1705.194 2819.833,1706.603 2826.514,1709.423C2833.196,1712.242 2839.102,1716.161 2844.233,1721.179C2845.136,1721.912 2845.587,1722.842 2845.587,1723.97C2845.587,1724.929 2845.248,1725.746 2844.572,1726.423C2843.895,1727.1 2843.077,1727.438 2842.119,1727.438C2841.104,1727.438 2840.174,1727.015 2839.328,1726.169C2834.761,1721.771 2829.573,1718.332 2823.765,1715.851C2817.958,1713.37 2811.84,1712.129 2805.412,1712.129C2796.616,1712.129 2788.496,1714.3 2781.053,1718.642C2773.61,1722.983 2767.732,1728.876 2763.419,1736.319C2759.105,1743.762 2756.948,1751.881 2756.948,1760.677C2756.948,1767.274 2758.231,1773.561 2760.797,1779.538C2763.362,1785.515 2766.802,1790.66 2771.115,1794.974C2775.429,1799.287 2780.574,1802.727 2786.551,1805.292C2792.528,1807.858 2798.815,1809.141 2805.412,1809.141C2811.896,1809.141 2818.056,1807.928 2823.892,1805.504C2829.728,1803.079 2834.873,1799.668 2839.328,1795.27C2840.23,1794.368 2841.16,1793.916 2842.119,1793.916C2843.077,1793.916 2843.895,1794.255 2844.572,1794.931C2845.248,1795.608 2845.587,1796.426 2845.587,1797.384C2845.587,1798.456 2845.248,1799.33 2844.572,1800.006C2839.497,1805.081 2833.577,1809.028 2826.81,1811.847C2820.044,1814.666 2812.911,1816.076 2805.412,1816.076C2797.913,1816.076 2790.738,1814.61 2783.887,1811.678C2777.036,1808.746 2771.144,1804.813 2766.21,1799.879C2761.276,1794.946 2757.343,1789.053 2754.411,1782.202C2751.479,1775.352 2750.013,1768.176 2750.013,1760.677ZM2916.632,1760.677C2916.632,1767.274 2917.915,1773.561 2920.481,1779.538C2923.046,1785.515 2926.486,1790.66 2930.799,1794.974C2935.113,1799.287 2940.258,1802.727 2946.235,1805.292C2952.212,1807.858 2958.499,1809.141 2965.096,1809.141C2971.693,1809.141 2977.98,1807.858 2983.957,1805.292C2989.934,1802.727 2995.079,1799.287 2999.392,1794.974C3003.706,1790.66 3007.145,1785.515 3009.711,1779.538C3012.277,1773.561 3013.559,1767.274 3013.559,1760.677C3013.559,1751.881 3011.403,1743.762 3007.089,1736.319C3002.776,1728.876 2996.897,1722.983 2989.454,1718.642C2982.012,1714.3 2973.892,1712.129 2965.096,1712.129C2956.3,1712.129 2948.18,1714.3 2940.737,1718.642C2933.294,1722.983 2927.416,1728.876 2923.103,1736.319C2918.789,1743.762 2916.632,1751.881 2916.632,1760.677ZM2909.697,1760.677C2909.697,1750.641 2912.164,1741.365 2917.098,1732.851C2922.031,1724.337 2928.755,1717.599 2937.27,1712.637C2945.784,1707.675 2955.059,1705.194 2965.096,1705.194C2975.133,1705.194 2984.408,1707.675 2992.922,1712.637C3001.436,1717.599 3008.16,1724.337 3013.094,1732.851C3018.028,1741.365 3020.495,1750.641 3020.495,1760.677C3020.495,1768.176 3019.029,1775.352 3016.097,1782.202C3013.165,1789.053 3009.232,1794.946 3004.298,1799.879C2999.364,1804.813 2993.472,1808.746 2986.621,1811.678C2979.77,1814.61 2972.595,1816.076 2965.096,1816.076C2957.597,1816.076 2950.422,1814.61 2943.571,1811.678C2936.72,1808.746 2930.828,1804.813 2925.894,1799.879C2920.96,1794.946 2917.027,1789.053 2914.095,1782.202C2911.163,1775.352 2909.697,1768.176 2909.697,1760.677ZM1713.475,1504.577C1713.475,1518.578 1708.596,1530.57 1698.839,1540.554C1689.081,1550.537 1677.3,1555.529 1663.496,1555.529L1564.846,1555.529C1560.8,1555.529 1557.349,1554.103 1554.493,1551.25C1551.637,1548.398 1550.209,1544.952 1550.209,1540.912L1550.209,1394.762C1550.209,1390.716 1551.637,1387.284 1554.493,1384.468C1557.349,1381.652 1560.8,1380.244 1564.846,1380.244L1663.496,1380.244C1677.3,1380.64 1689.081,1385.817 1698.839,1395.773C1708.596,1405.729 1713.475,1417.609 1713.475,1431.413C1713.475,1445.772 1708.358,1457.95 1698.125,1467.946C1708.358,1477.969 1713.475,1490.179 1713.475,1504.577ZM1662.306,1409.398L1579.483,1409.398L1579.483,1453.19L1663.02,1453.19C1668.891,1453.19 1673.908,1451.057 1678.073,1446.79C1682.238,1442.522 1684.321,1437.437 1684.321,1431.534C1684.321,1425.471 1682.179,1420.266 1677.895,1415.919C1673.611,1411.572 1668.415,1409.398 1662.306,1409.398ZM1663.02,1482.821L1579.483,1482.821L1579.483,1526.374L1662.306,1526.374C1668.415,1526.374 1673.611,1524.227 1677.895,1519.931C1682.179,1515.635 1684.321,1510.464 1684.321,1504.419C1684.321,1498.611 1682.238,1493.56 1678.073,1489.265C1673.908,1484.969 1668.891,1482.821 1663.02,1482.821ZM1793.204,1533.99L1877.694,1387.265C1880.788,1382.584 1885.032,1380.244 1890.426,1380.244C1895.742,1380.244 1899.946,1382.584 1903.04,1387.265L1987.648,1533.99C1988.759,1536.449 1989.314,1538.79 1989.314,1541.011C1989.314,1545.057 1987.886,1548.508 1985.03,1551.364C1982.174,1554.22 1978.723,1555.648 1974.678,1555.648C1969.124,1555.648 1964.602,1552.633 1961.112,1546.604L1945.166,1519.115L1835.33,1519.115L1819.503,1546.604C1816.013,1552.633 1811.53,1555.648 1806.056,1555.648C1802.01,1555.648 1798.559,1554.22 1795.703,1551.364C1792.848,1548.508 1791.42,1545.057 1791.42,1541.011C1791.42,1538.472 1792.015,1536.132 1793.204,1533.99ZM1890.426,1423.797L1852.109,1489.842L1928.387,1489.842L1890.426,1423.797ZM2072.137,1541.011L2072.137,1394.762C2072.137,1390.716 2073.565,1387.284 2076.421,1384.468C2079.277,1381.652 2082.728,1380.244 2086.774,1380.244L2161.148,1380.244C2176.618,1380.64 2189.827,1386.392 2200.775,1397.499C2211.723,1408.605 2217.197,1421.933 2217.197,1437.482C2217.197,1449.699 2213.686,1460.687 2206.665,1470.445C2199.645,1480.203 2190.541,1487.144 2179.355,1491.27L2219.101,1530.777C2221.877,1533.95 2223.266,1537.362 2223.266,1541.011C2223.266,1545.057 2221.838,1548.508 2218.982,1551.364C2216.126,1554.22 2212.675,1555.648 2208.629,1555.648C2204.583,1555.648 2201.172,1554.26 2198.395,1551.483L2141.633,1494.72L2101.411,1494.72L2101.411,1541.011C2101.411,1545.057 2099.983,1548.508 2097.127,1551.364C2094.271,1554.22 2090.82,1555.648 2086.774,1555.648C2082.728,1555.648 2079.277,1554.22 2076.421,1551.364C2073.565,1548.508 2072.137,1545.057 2072.137,1541.011ZM2161.148,1409.398L2101.411,1409.398L2101.411,1465.447L2159.839,1465.447C2167.535,1465.447 2174.139,1462.71 2179.653,1457.236C2185.166,1451.762 2187.923,1445.177 2187.923,1437.482C2187.923,1430.104 2185.305,1423.678 2180.069,1418.204C2174.833,1412.73 2168.526,1409.795 2161.148,1409.398ZM2474.234,1504.577C2474.234,1518.578 2469.355,1530.57 2459.597,1540.554C2449.839,1550.537 2438.058,1555.529 2424.255,1555.529L2325.605,1555.529C2321.559,1555.529 2318.108,1554.103 2315.252,1551.25C2312.396,1548.398 2310.968,1544.952 2310.968,1540.912L2310.968,1394.762C2310.968,1390.716 2312.396,1387.284 2315.252,1384.468C2318.108,1381.652 2321.559,1380.244 2325.605,1380.244L2424.255,1380.244C2438.058,1380.64 2449.839,1385.817 2459.597,1395.773C2469.355,1405.729 2474.234,1417.609 2474.234,1431.413C2474.234,1445.772 2469.117,1457.95 2458.883,1467.946C2469.117,1477.969 2474.234,1490.179 2474.234,1504.577ZM2423.065,1409.398L2340.242,1409.398L2340.242,1453.19L2423.779,1453.19C2429.649,1453.19 2434.667,1451.057 2438.832,1446.79C2442.997,1442.522 2445.079,1437.437 2445.079,1431.534C2445.079,1425.471 2442.937,1420.266 2438.653,1415.919C2434.369,1411.572 2429.173,1409.398 2423.065,1409.398ZM2423.779,1482.821L2340.242,1482.821L2340.242,1526.374L2423.065,1526.374C2429.173,1526.374 2434.369,1524.227 2438.653,1519.931C2442.937,1515.635 2445.079,1510.464 2445.079,1504.419C2445.079,1498.611 2442.997,1493.56 2438.832,1489.265C2434.667,1484.969 2429.649,1482.821 2423.779,1482.821ZM2553.963,1533.99L2638.452,1387.265C2641.546,1382.584 2645.791,1380.244 2651.185,1380.244C2656.5,1380.244 2660.705,1382.584 2663.799,1387.265L2748.407,1533.99C2749.518,1536.449 2750.073,1538.79 2750.073,1541.011C2750.073,1545.057 2748.645,1548.508 2745.789,1551.364C2742.933,1554.22 2739.482,1555.648 2735.436,1555.648C2729.883,1555.648 2725.361,1552.633 2721.87,1546.604L2705.925,1519.115L2596.089,1519.115L2580.262,1546.604C2576.771,1552.633 2572.289,1555.648 2566.815,1555.648C2562.769,1555.648 2559.318,1554.22 2556.462,1551.364C2553.606,1548.508 2552.178,1545.057 2552.178,1541.011C2552.178,1538.472 2552.773,1536.132 2553.963,1533.99ZM2651.185,1423.797L2612.868,1489.842L2689.146,1489.842L2651.185,1423.797ZM2874.427,1541.011L2874.427,1409.398L2815.879,1409.398C2811.833,1409.398 2808.382,1407.97 2805.526,1405.114C2802.67,1402.258 2801.242,1398.808 2801.242,1394.762C2801.242,1390.716 2802.67,1387.284 2805.526,1384.468C2808.382,1381.652 2811.833,1380.244 2815.879,1380.244L2962.129,1380.244C2966.175,1380.244 2969.626,1381.652 2972.482,1384.468C2975.338,1387.284 2976.766,1390.716 2976.766,1394.762C2976.766,1398.808 2975.338,1402.258 2972.482,1405.114C2969.626,1407.97 2966.175,1409.398 2962.129,1409.398L2903.581,1409.398L2903.581,1541.011C2903.581,1545.057 2902.153,1548.508 2899.297,1551.364C2896.441,1554.22 2892.99,1555.648 2888.945,1555.648C2884.899,1555.648 2881.467,1554.22 2878.651,1551.364C2875.835,1548.508 2874.427,1545.057 2874.427,1541.011ZM3071.608,1467.946C3071.608,1478.497 3074.225,1488.255 3079.461,1497.219C3084.697,1506.184 3091.817,1513.284 3100.822,1518.52C3109.826,1523.756 3119.604,1526.374 3130.155,1526.374C3140.706,1526.374 3150.464,1523.756 3159.429,1518.52C3168.393,1513.284 3175.493,1506.184 3180.729,1497.219C3185.965,1488.255 3188.583,1478.497 3188.583,1467.946C3188.583,1457.395 3185.965,1447.617 3180.729,1438.613C3175.493,1429.608 3168.393,1422.488 3159.429,1417.252C3150.464,1412.016 3140.706,1409.398 3130.155,1409.398C3122.301,1409.398 3114.745,1410.945 3107.486,1414.039C3100.227,1417.133 3093.979,1421.298 3088.743,1426.534C3083.507,1431.77 3079.342,1438.018 3076.248,1445.277C3073.154,1452.535 3071.608,1460.092 3071.608,1467.946ZM3049.355,1502.039C3044.753,1491.21 3042.453,1479.846 3042.453,1467.946C3042.453,1456.046 3044.753,1444.682 3049.355,1433.853C3053.956,1423.024 3060.184,1413.682 3068.038,1405.828C3075.891,1397.975 3085.233,1391.747 3096.062,1387.146C3106.891,1382.544 3118.255,1380.244 3130.155,1380.244C3142.055,1380.244 3153.419,1382.544 3164.248,1387.146C3175.077,1391.747 3184.418,1397.975 3192.272,1405.828C3200.126,1413.682 3206.354,1423.024 3210.955,1433.853C3215.556,1444.682 3217.857,1456.046 3217.857,1467.946C3217.857,1479.846 3215.556,1491.21 3210.955,1502.039C3206.354,1512.868 3200.126,1522.209 3192.272,1530.063C3184.418,1537.917 3175.077,1544.145 3164.248,1548.746C3153.419,1553.347 3142.055,1555.648 3130.155,1555.648C3118.255,1555.648 3106.891,1553.347 3096.062,1548.746C3085.233,1544.145 3075.891,1537.917 3068.038,1530.063C3060.184,1522.209 3053.956,1512.868 3049.355,1502.039Z" style="fill:white;fill-rule:nonzero;"></path>
</svg>